<svg width="16" height="14" viewBox="0 0 16 14" fill="none" xmlns="http://www.w3.org/2000/svg">
<path d="M8.02154 13.291C13.902 9.79102 16.9673 4.50023 13.6127 2.05835C11.4125 0.45678 8.95343 1.73277 8.02154 2.54673H8.00003H7.99997H7.97846C7.04657 1.73277 4.58746 0.45678 2.38727 2.05835C-0.967302 4.50023 2.09797 9.79102 7.97846 13.291H7.99997H8.00003H8.02154Z" fill="#B672FF"/>
<path d="M7.99997 2.54673H8.02154C8.95343 1.73277 11.4125 0.45678 13.6127 2.05835C16.9673 4.50023 13.902 9.79102 8.02154 13.291H7.99997M8.00003 2.54673H7.97846C7.04657 1.73277 4.58746 0.45678 2.38727 2.05835C-0.967302 4.50023 2.09797 9.79102 7.97846 13.291H8.00003" stroke="#B672FF"/>
</svg>
